<svg xmlns="http://www.w3.org/2000/svg" width="137" height="82" viewBox="0 0 137 82" fill="none">
<g clip-path="url(#clip0_3637_10481)">
<path d="M79.4026 15.4908L64.8248 0.401927L57.5543 2.20387C58.1062 5.2602 58.5514 8.30867 58.837 11.3707L65.0546 9.67267L71.2955 20.2367L74.2684 50.8446L84.776 52.0413L79.4239 15.4904L79.4026 15.4908Z" fill="#F8B26B"/>
<path d="M-0.209889 66.4436L42.2275 48.3668L70.3287 41.2734L132.874 59.725L66.7109 79.9034L-0.209889 66.4436Z" fill="#F4994C"/>
<path d="M68.8795 96.5913C68.8795 96.5913 76.7267 105.156 85.5946 101.3C94.4626 97.4434 96.7639 87.4453 96.7639 87.4453L94.8453 75.1544C94.8453 75.1544 88.5108 67.9626 80.445 69.0931C72.3794 70.2343 65.8266 80.7972 65.8266 80.7972C65.8266 80.7972 61.4672 91.7158 68.8795 96.5913Z" fill="#D21E19"/>
<path d="M49.9527 52.9685C49.9527 52.9685 56.9744 61.3281 59.331 62.7781C61.6877 64.2282 67.2254 64.4445 69.8008 64.2479C75.0688 63.8521 79.1598 60.4232 81.3743 56.0345C84.3131 50.2009 86.1833 41.8863 82.0493 36.308C77.0793 29.5866 66.3086 28.955 66.3086 28.955C66.3086 28.955 56.4221 30.6596 52.0531 37.8366C47.684 45.0136 47.588 50.2181 49.9633 52.9683L49.9527 52.9685Z" fill="#D21E19"/>
<path d="M75.8319 47.0767L78.1324 54.5512L76.8517 56.8507C76.8517 56.8507 76.0105 50.2708 74.0744 49.0351L70.635 53.9418L70.2184 52.011L70.3502 49.3429L71.9741 47.1316L66.3617 47.386C66.3617 47.386 68.6159 45.235 70.4777 45.0652C72.3394 44.8953 72.915 45.3621 72.915 45.3621C72.915 45.3621 71.48 43.6567 71.7503 40.0367L72.811 38.3818L74.5752 44.2906C74.5752 44.2906 76.5932 41.5907 78.524 41.1741C80.4548 40.7574 81.6164 41.211 81.6164 41.211L79.7361 42.9271L75.8215 47.0876L75.8319 47.0767Z" fill="#1E640F"/>
<path d="M83.861 82.1714L79.6405 75.593L77.0599 75.0861C77.0599 75.0861 81.5411 79.985 81.2404 82.2518L75.2794 81.7038L76.4766 83.2652L78.5921 84.8913L81.3253 85.0749L77.5056 89.1906C77.5056 89.1906 80.6109 88.8542 81.9459 87.5448C83.281 86.2355 83.2961 85.4889 83.2961 85.4889C83.2961 85.4889 83.6655 87.6873 86.6131 89.817L88.5591 90.0716L85.1914 84.9132C85.1914 84.9132 88.554 85.1146 90.1261 83.9172C91.6982 82.7198 92.0978 81.5275 92.0978 81.5275L89.5785 81.8507L83.8819 82.1496L83.861 82.1714Z" fill="#1E640F"/>
<path d="M85.1531 80.3833L89.4503 71.4383L89.6872 57.8195L86.1912 59.7425L86.7114 65.7966L83.2879 80.8731L83.7189 83.4432L85.1531 80.3833Z" fill="#1E640F"/>
<path d="M93.1346 65.972C93.1346 65.972 92.3036 72.6215 93.4122 74.0357C94.5207 75.4499 101.138 87.1447 111.781 84.0159C122.435 80.8869 125.487 70.1363 125.559 67.1817C125.62 64.2274 121.476 59.5981 121.476 59.5981C121.476 59.5981 116.992 50.7976 108.03 51.4366C99.0686 52.0756 93.4271 60.9763 93.1343 65.9613L93.1346 65.972Z" fill="#D21E19"/>
<path d="M107.929 64.5295L102.019 61.038L99.7436 61.7929C99.7436 61.7929 105.225 63.7802 105.846 65.781L100.833 68.0367L102.396 68.7797L104.717 69.1539L106.985 68.0687L105.49 73.1768C105.49 73.1768 107.862 71.503 108.432 69.8271C109.002 68.1512 108.732 67.5283 108.732 67.5283C108.732 67.5283 109.867 69.1658 113.053 69.5737L114.722 68.9072L110.034 66.1984C110.034 66.1984 112.818 64.8351 113.622 63.1539C114.426 61.4621 114.294 60.3031 114.294 60.3031L112.385 61.7107L107.907 64.53L107.929 64.5295Z" fill="#1E640F"/>
<path d="M66.8321 84.432C66.8321 84.432 71.4598 74.5414 71.7708 71.784C72.0818 69.0266 69.9521 63.9255 68.686 61.6727C66.0982 57.0617 61.2712 54.7932 56.3641 54.6479C49.8353 54.4431 41.5075 56.2511 38.1909 62.349C34.1986 69.6881 38.1559 79.7265 38.1559 79.7265C38.1559 79.7265 43.8746 87.9768 52.2214 88.9081C60.5791 89.8499 65.3288 87.7387 66.8214 84.4323L66.8321 84.432Z" fill="#D21E19"/>
<path d="M50.5603 63.4562L56.3695 58.2189L58.9962 58.4049C58.9962 58.4049 53.3832 61.9427 53.0721 64.2204L58.9697 65.2709L57.3976 66.4683L54.9256 67.4728L52.2375 66.9257L54.8337 71.9096C54.8337 71.9096 51.9297 70.7704 50.987 69.1499C50.0444 67.5294 50.2308 66.811 50.2308 66.811C50.2308 66.811 49.2956 68.8362 45.8916 70.1069L43.9454 69.8416L48.5545 65.7507C48.5545 65.7507 45.2554 65.0575 44.0687 63.4851C42.8819 61.9128 42.8006 60.6673 42.8006 60.6673L45.1467 61.6486L50.56 63.4455L50.5603 63.4562Z" fill="#1E640F"/>
<path d="M49.1068 62.3482L45.7644 56.8907L42.3215 40.3485L46.0025 41.9073L46.1018 49.1542L51.0111 62.6464L50.8457 65.2406L49.1068 62.3482Z" fill="#1E640F"/>
<path d="M52.0013 47.7735C52.0013 47.7735 49.5165 51.518 44.8605 51.1645C40.2046 50.811 32.4215 47.4577 29.4452 40.7446C26.469 34.0316 27.4695 32.0688 27.4695 32.0688C27.4695 32.0688 35.5625 21.258 39.0299 20.4336C40.0477 20.1868 41.767 20.3187 43.6822 20.6273C56.4037 22.6754 62.0899 38.4741 52.4189 47.3803C52.2832 47.5113 52.1476 47.6422 52.0013 47.7735Z" fill="#D21E19"/>
<path d="M64.9381 93.9621C64.9381 93.9621 57.4846 102.872 48.4519 99.4185C39.4297 95.9546 36.6701 86.0812 36.6701 86.0812L38.0333 73.7162C38.0333 73.7162 44.0374 66.2465 52.146 67.0127C60.2549 67.7894 67.2767 78.0466 67.2767 78.0466C67.2767 78.0466 72.1233 88.7578 64.9381 93.9621Z" fill="#D21E19"/>
<path d="M54.4486 58.0165C54.4486 58.0165 48.3913 48.9316 47.6595 46.2616C46.9278 43.5917 48.2777 38.2097 49.1829 35.8013C51.0437 30.8556 55.4755 27.8881 60.3061 27.001C66.7291 25.8223 75.2269 26.3557 79.4239 31.8899C84.4777 38.5455 82.0709 49.0684 82.0709 49.0684C82.0709 49.0684 77.6579 58.08 69.5413 60.267C61.4246 62.454 56.4046 61.0853 54.4278 58.0383L54.4486 58.0165Z" fill="#D21E19"/>
<path d="M37.7764 37.6684L38.5698 45.4434L40.6424 47.0597C40.6424 47.0597 38.8568 40.6717 40.1573 38.7768L45.2287 41.9566L44.8651 40.014L43.7129 37.6093L41.3575 36.2126L46.6224 34.2603C46.6224 34.2603 43.7085 33.1533 41.9198 33.7266C40.1311 34.3 39.7938 34.9472 39.7938 34.9472C39.7938 34.9472 40.4602 32.8214 38.7989 29.5861L37.1747 28.4713L37.8457 34.5966C37.8457 34.5966 34.9293 32.9034 32.997 33.256C31.0647 33.6087 30.1572 34.4927 30.1572 34.4927L32.5537 35.3448L37.7761 37.6578L37.7764 37.6684Z" fill="#1E640F"/>
<path d="M67.369 34.8268L60.8439 30.5284L58.2771 31.1086C58.2771 31.1086 64.3602 33.7646 65.0068 35.9674L59.3362 37.8968L61.0631 38.8386L63.657 39.4625L66.2263 38.5198L64.4059 43.8377C64.4059 43.8377 67.1104 42.2737 67.796 40.5312C68.4817 38.7888 68.1891 38.1024 68.1891 38.1024C68.1891 38.1024 69.4249 39.9615 72.9705 40.7132L74.8556 40.159L69.6844 36.8108C69.6844 36.8108 72.8347 35.6312 73.787 33.8934C74.7392 32.1556 74.6153 30.9111 74.6153 30.9111L72.4385 32.2394L67.3477 34.8273L67.369 34.8268Z" fill="#1E640F"/>
<path d="M49.3087 80.2204L53.2287 73.4586L55.7839 72.836C55.7839 72.836 51.5278 77.9317 51.9304 80.1826L57.8605 79.3668L56.7349 80.9805L54.6948 82.7002L51.9727 83.0067L55.9738 86.9462C55.9738 86.9462 52.8565 86.75 51.4639 85.5021C50.0712 84.2542 50.0224 83.509 50.0224 83.509C50.0224 83.509 49.7525 85.7219 46.9037 87.9821L44.9712 88.3241L48.1032 83.0193C48.1032 83.0193 44.7531 83.3719 43.1286 82.2465C41.5042 81.1211 41.0513 79.948 41.0513 79.948L43.5826 80.1575L49.2869 80.1995L49.3087 80.2204Z" fill="#1E640F"/>
<path d="M85.3357 79.068L84.4951 81.0271L45.0485 64.3472L16.5612 40.5764L19.5191 37.0131L22.2831 37.1428L42.0064 56.1325L80.0019 76.5443L85.3357 79.068Z" fill="#1E640F"/>
<path d="M47.937 78.5037L43.2413 69.7613L42.3914 56.167L45.981 57.9304L45.7234 64.002L49.833 78.9088L49.5182 81.4957L47.937 78.5037Z" fill="#1E640F"/>
<path d="M54.1009 44.0168L47.7162 43.5849L31.4556 48.1728L34.5405 50.7151L41.0127 47.4565L55.2448 45.5794L57.4742 44.218L54.1009 44.0168Z" fill="#1E640F"/>
<path d="M39.4128 36.5331L31.6909 39.6813L21.9313 44.8475L24.7999 47.2562L33.6535 41.1509L40.0382 38.2673" fill="#1E640F"/>
<path d="M39.3168 64.4665C39.3168 64.4665 40.4464 71.0719 39.4026 72.5346C38.3589 73.9973 32.2751 85.9781 21.5017 83.3318C10.7176 80.6858 7.18466 70.0835 6.97965 67.1352C6.7853 64.1866 10.7173 59.3754 10.7173 59.3754C10.7173 59.3754 14.8002 50.3819 23.7816 50.6167C32.7631 50.8514 38.7996 59.489 39.3166 64.4558L39.3168 64.4665Z" fill="#D21E19"/>
<path d="M23.3627 62.7363L20.8598 57.633L18.4563 40.8542L23.1018 44.0543L22.2265 50.6302L25.183 63.0897L24.671 65.4466L23.3627 62.7363Z" fill="#1E640F"/>
<path d="M24.4805 63.6914L30.2272 59.9374L32.5339 60.589C32.5339 60.589 27.1473 62.8211 26.6173 64.8479L31.7267 66.8756L30.1993 67.6882L27.8967 68.1665L25.5826 67.1845L27.3058 72.2201C27.3058 72.2201 24.8612 70.6548 24.2164 69.0063C23.5716 67.3578 23.8132 66.7234 23.8132 66.7234C23.8132 66.7234 22.7532 68.4103 19.5888 68.9613L17.8911 68.3706L22.452 65.4534C22.452 65.4534 19.6098 64.2169 18.7306 62.5737C17.8512 60.9198 17.9316 59.756 17.9316 59.756L19.9015 61.0761L24.5018 63.6909L24.4805 63.6914Z" fill="#1E640F"/>
<path d="M26.0992 56.9498C26.0992 56.9498 24.4909 52.7538 27.4697 49.1688C30.4485 45.5837 37.705 41.1773 44.8913 42.6465C52.0776 44.1157 53.1127 46.0539 53.1127 46.0539C53.1127 46.0539 57.2402 58.9134 55.9074 62.2162C55.5134 63.1846 54.4133 64.5099 53.0479 65.8946C44.0121 75.0743 27.8342 70.5562 26.1761 57.5238C26.1505 57.3325 26.1144 57.152 26.0888 56.9607L26.0992 56.9498Z" fill="#D21E19"/>
<path d="M42.569 51.2058L35.7764 47.3398L33.2561 48.0895C33.2561 48.0895 39.5005 50.3368 40.2847 52.4939L34.7501 54.7827L36.5383 55.6059L39.171 56.0583L41.6725 54.9465L40.2063 60.3738C40.2063 60.3738 42.8002 58.631 43.368 56.8592C43.9357 55.0874 43.6007 54.4127 43.6007 54.4127C43.6007 54.4127 44.9518 56.1839 48.5454 56.6999L50.3956 56.0186L45.019 53.0162C45.019 53.0162 48.0899 51.6251 48.9131 49.8369C49.7364 48.0488 49.5484 46.8057 49.5484 46.8057L47.4707 48.2704L42.5685 51.1845L42.569 51.2058Z" fill="#1E640F"/>
<path d="M106.509 11.6651L106.918 14.4177L105.922 18.6055C105.922 18.6055 105.62 34.7625 103.987 38.6489C102.355 42.5373 89.6947 62.272 83.369 65.0589C77.0414 67.8463 63.48 69.0455 61.8931 69.0216C60.3061 68.9977 54.5075 68.0705 54.5075 68.0705L53.9942 66.4355L80.4183 46.7321C80.4183 46.7321 92.9312 29.9036 94.1862 26.1939C95.4412 22.4841 101.262 18.844 101.262 18.844L102.817 17.5131L103.16 10.8687L106.511 11.6645L106.509 11.6651Z" fill="#FFCD00"/>
<path d="M106.139 11.6579L109.89 10.5844L111.104 14.5792L110.837 17.903C110.837 17.903 119.639 31.795 119.778 36.4494C119.917 41.1038 115.852 63.292 115.852 63.292C115.852 63.292 99.8645 86.9226 91.4729 88.0187C83.0799 89.1172 71.3251 86.5198 71.3251 86.5198L71.1338 82.5287L88.9816 69.5974C88.9816 69.5974 100.734 56.4893 102.043 47.5423C103.353 38.5952 104.132 24.646 104.132 24.646L106.14 11.6598L106.139 11.6579Z" fill="#FFCD00"/>
<path d="M114.752 28.2529C114.752 28.2529 117.067 51.4043 102.175 63.702C87.2826 75.9996 85.3109 76.2464 85.3109 76.2464C85.3109 76.2464 72.8724 82.8266 59.7602 79.1396L56.0721 77.4611L56.9823 74.1237C56.9823 74.1237 79.1285 62.3463 83.8111 56.6786C88.4932 51.0089 100.44 39.2523 100.44 39.2523L105.692 22.8697L113.884 27.3432L114.757 28.2538L114.752 28.2529Z" fill="#FFCD00"/>
<path d="M107.342 9.24773L103.159 10.8671L106.14 11.6574L109.889 10.5843L107.342 9.24773Z" fill="#73331E"/>
<path d="M65.2174 51.898L62.4298 52.6936C62.4298 52.6936 46.0865 58.9517 44.3234 70.8616C42.5583 82.7721 43.8165 86.3946 43.8165 86.3946L46.7407 87.2836C46.7407 87.2836 61.8214 88.6812 68.013 84.3951C74.204 80.1067 76.6078 77.6962 76.6078 77.6962C76.6078 77.6962 82.4406 64.01 81.952 61.4067C81.4634 58.8034 79.6268 49.2442 79.6268 49.2442C79.6268 49.2442 74.9448 49.1225 74.5975 49.2219C74.2502 49.3213 72.7736 51.2028 72.7736 51.2028L65.2201 51.8996L65.2174 51.898Z" fill="#FF6E00"/>
<path d="M83.5747 77.8165C83.5747 77.8165 82.5988 79.9292 78.8421 82.9554L78.4879 86.7779L82.9048 88.7491C82.9048 88.7491 84.3294 86.0146 87.0661 82.7464L88.1189 79.1511L83.5747 77.8165Z" fill="#85D6B9"/>
<path d="M132.45 6.5711L132.158 15.2695C132.158 15.2695 113.678 32.8442 109.452 39.3312C105.226 45.8182 96.0143 65.0305 96.0143 65.0305L88.5975 74.8543L90.5156 76.4461L101.593 62.1238L116.942 33.3262C116.942 33.3262 129.127 25.7115 133.549 16.7901L133.375 7.27505L132.452 6.57249L132.45 6.5711Z" fill="#2DBE64"/>
<path d="M123.876 14.6116C123.876 14.6116 115.068 29.9754 106.358 35.6685C97.6451 41.3621 97.1919 46.143 97.1919 46.143L96.4459 57.7657L88.5958 74.8544L86.7018 74.3573C86.7018 74.3573 94.3013 56.4771 93.8691 52.1505C93.4369 47.8238 93.1475 45.313 93.1475 45.313L103.666 33.5056L110.878 29.0665L123.025 15.0033L123.875 14.614L123.876 14.6116Z" fill="#2DBE64"/>
<path d="M136.337 27.159L123.063 34.9313L94.1028 60.1574L87.5689 74.6169L88.2937 75.6988L89.795 75.3408C89.795 75.3408 94.5154 62.3091 98.587 59.3567C102.659 56.4043 124.257 35.5883 124.257 35.5883L136.803 27.8549" fill="#2DBE64"/>
<path d="M124.61 43.4459C124.61 43.4459 117.365 45.4229 113.829 50.5633C113.829 50.5633 110.241 56.4076 105.136 61.6171L93.0659 71.3501L89.7972 75.3406C89.7972 75.3406 89.2673 76.9038 91.5988 77.3307L105.409 64.3535C105.409 64.3535 110.937 57.0838 112.607 54.8229L117.064 48.492L125.072 43.6762L124.61 43.444L124.61 43.4459Z" fill="#2DBE64"/>
<path d="M88.0289 71.1361L83.5752 77.8162L83.6491 79.4543L84.5537 79.7912L84.2932 80.9759L86.1399 81.5697L87.0666 82.7461L91.5988 77.3302L92.3367 73.3233L88.0289 71.1361Z" fill="#2DBE64"/>
<path d="M-0.209807 66.4436L13.4898 109.545L51.2937 126.656L81.9697 125.965L123.428 105.576L132.874 59.7251L70 77.5L-0.209807 66.4436Z" fill="#F8B26B"/>
<path d="M52.1697 3.52831L31.9297 33.9234L36.8158 82.3303L45.9161 87.1335L41.0132 38.0157L53.8901 12.7163L58.8261 11.3708C58.5405 8.30876 58.1059 5.26006 57.5433 2.20396L52.1697 3.52831Z" fill="#F8B26B"/>
</g>
<defs>
<clipPath id="clip0_3637_10481">
<rect width="137" height="82" fill="white"/>
</clipPath>
</defs>
</svg>